<svg width="142" height="66" viewBox="0 0 142 66" fill="none" xmlns="http://www.w3.org/2000/svg">
<path d="M141.395 43.1948C141.323 43.0651 141.239 42.8943 141.157 42.7162C141.977 40.2843 141.031 38.258 139.807 37.1336L139.758 37.0896C137.456 35.0334 133.661 35.1573 131.476 37.354C131.152 37.6769 130.879 38.0089 130.638 38.3015C130.612 38.3331 130.582 38.3704 130.548 38.4108C129.719 38.543 129.044 38.6599 128.46 38.7724C127.378 37.9783 126.245 37.6646 125.383 37.4257C124.95 37.3059 124.541 37.1928 124.084 37.0179C123.199 36.6813 122.899 36.335 122.403 35.7619C122.246 35.5801 122.068 35.3741 121.86 35.1587C121.078 34.3508 120.004 33.6604 118.661 33.1007C118.467 32.1381 118.056 31.2405 117.449 30.4652C117.365 30.299 116.961 29.3827 116.951 27.2129L116.949 27.0583L122.31 16.2595C123.951 12.9535 125.417 11.6563 125.827 11.3372C127.958 9.67977 128.802 6.85007 127.926 4.29567C127.049 1.73967 124.645 0.0225429 121.943 0.0225429H113.727C110.898 0.0225429 108.447 1.8747 107.66 4.56482C106.873 1.8747 104.421 0.0225429 101.592 0.0225429H96.2335C95.3502 0.0225429 94.4799 0.216776 93.6841 0.587936C92.4014 0.197648 91.0735 0.000227706 89.7287 0.000227706C89.7268 0.000227706 89.7054 0.000455411 89.7036 0.000455411L76.2705 0.0560156C75.4066 0.0594312 74.5545 0.24911 73.7739 0.608429C72.4706 0.20448 71.1205 0.000227706 69.752 0.000227706C69.7502 0.000227706 69.7288 0.000455411 69.727 0.000455411L56.2506 0.0560156C54.9477 0.0612528 53.6746 0.479093 52.6169 1.22847C51.7922 0.640308 50.8285 0.254347 49.8116 0.114991C49.4653 0.0535108 49.1114 0.0225429 48.7592 0.0225429C48.7521 0.0225429 48.7407 0.0225429 48.7291 0.0227706L44.9007 0.03871L41.0614 0.0227706C41.0498 0.0225429 41.0387 0.0225429 41.0316 0.0225429C40.6787 0.0225429 40.3244 0.0537385 39.978 0.115219C38.6455 0.298067 37.441 0.88327 36.4996 1.7802C35.3354 0.655109 33.7631 0 32.1002 0H23.7983C22.0428 0 20.4044 0.709531 19.2142 1.96647C18.0245 0.709759 16.3862 0 14.6303 0H6.32851C3.90438 0 1.66218 1.41291 0.616117 3.59912C-0.415379 5.7548 -0.131205 8.34427 1.33498 10.2256C1.42036 10.3973 1.83023 11.337 1.83023 13.5555V27.1311C1.83023 29.3629 1.41558 30.2992 1.33202 30.4645C-0.133482 32.3415 -0.416289 34.9303 0.615889 37.0878C0.931486 37.747 1.35934 38.3443 1.87805 38.8552C0.782112 40.8406 0.207845 43.1903 0.207845 45.7235C0.207845 49.4936 1.44313 52.7542 3.78051 55.1524C6.04502 57.4754 9.16432 58.7551 12.5637 58.7551C12.7345 58.7551 12.9055 58.7508 13.0763 58.7437H78.8474C79.7878 59.8454 80.8963 60.5308 81.6056 60.8933C82.1179 61.7724 82.8953 62.6705 83.6276 63.2216C83.9311 63.4511 84.2651 63.6428 84.6245 63.7936C84.8476 64.0474 85.0951 64.2772 85.364 64.4799C86.7881 65.5505 88.5221 65.5719 89.6225 65.439C90.0556 65.5888 90.5076 65.6646 90.9712 65.6646C91.5428 65.6646 92.0984 65.5489 92.6221 65.3212C93.7178 64.8446 94.5537 63.9179 94.9155 62.7784C95.1696 61.9781 95.7601 61.3487 96.5306 61.054C96.8902 60.9183 97.2679 60.8587 97.6493 60.8748C99.2264 60.9534 100.686 60.1421 101.458 58.7606C101.78 58.1845 102.257 57.7728 102.881 57.5364C103.832 57.1719 104.901 57.3675 105.668 58.0476C106.888 59.1281 108.635 59.3911 110.122 58.7182C110.157 58.7018 110.194 58.6873 110.232 58.672L110.364 58.6174C111.538 58.1915 112.847 58.6014 113.554 59.6188C114.287 60.6728 115.442 61.3177 116.72 61.3888C118.002 61.46 119.221 60.9493 120.068 59.9799C121.068 58.8359 121.994 57.5301 122.82 56.0987C124.476 53.2319 124.743 53.1344 125.627 52.8113C125.975 52.6838 126.37 52.5394 126.831 52.3447C128.365 51.7019 129.591 50.6647 130.406 49.3254C131.158 49.1311 131.64 49.0337 131.891 48.9943C133.252 50.2496 135.083 50.8574 136.996 50.6773C137.006 50.6763 137.021 50.675 137.035 50.6736C138.896 50.4864 140.633 49.3295 141.46 47.7262C142.204 46.2869 142.179 44.593 141.396 43.1942L141.395 43.1948Z" fill="white"/>
<path d="M140.259 43.828C140.087 43.5185 139.888 43.0836 139.754 42.7404C140.64 40.7159 139.965 39.0446 138.922 38.0864C138.912 38.0773 138.902 38.0684 138.892 38.0595C137.119 36.4763 134.077 36.5821 132.394 38.2754C132.118 38.5495 131.876 38.8433 131.643 39.1274C131.527 39.2682 131.359 39.4722 131.224 39.6206C130.043 39.8044 129 39.9813 128.114 40.1685C127.114 39.2543 125.962 38.9355 125.037 38.6795C124.594 38.5566 124.135 38.4297 123.622 38.2335C122.431 37.7806 121.962 37.2393 121.419 36.6124C121.264 36.4335 121.104 36.2486 120.925 36.0632C120.899 36.0363 120.873 36.0099 120.846 35.9837C120.838 35.9755 120.829 35.9673 120.821 35.9589C120.803 35.9407 120.784 35.9227 120.765 35.9047C120.755 35.8956 120.746 35.8865 120.736 35.8774C120.717 35.8601 120.699 35.843 120.68 35.8259C120.671 35.8173 120.661 35.8086 120.652 35.8002C120.632 35.7818 120.611 35.7635 120.59 35.7456C120.583 35.7387 120.575 35.7321 120.567 35.7253C120.54 35.7016 120.513 35.6784 120.485 35.6552C120.484 35.6542 120.483 35.6531 120.482 35.6522C119.639 34.947 118.564 34.4233 117.476 34.0359C117.409 33.0185 117.038 32.0237 116.376 31.206C116.339 31.1532 115.665 30.1424 115.651 27.2216C115.651 27.1861 115.65 27.1513 115.649 27.1166V27.1317V26.7532L116.196 25.6518L117.092 23.8472L119.974 18.0414L120.191 17.6049L120.364 17.2563L120.834 16.31L121.146 15.6813C122.862 12.2247 124.433 10.7738 125.029 10.3106C126.722 8.99401 127.392 6.74656 126.696 4.7177C126 2.68748 124.09 1.32329 121.944 1.32329H113.728C111.396 1.32329 109.387 2.90744 108.843 5.17562L108.796 5.37554C108.557 6.37357 108.205 7.34132 107.749 8.26057L107.661 8.43864L107.572 8.26034C107.116 7.3411 106.765 6.37335 106.526 5.37554L106.478 5.17584C105.934 2.90744 103.925 1.32329 101.593 1.32329H96.2346C95.3579 1.32329 94.5227 1.56489 93.8045 1.99525C92.521 1.54462 91.1513 1.30075 89.7298 1.30075C89.7232 1.30075 89.7168 1.30075 89.7102 1.30075L76.2769 1.35631C75.4157 1.35995 74.595 1.59654 73.8871 2.01597C72.5865 1.55191 71.1963 1.30052 69.7532 1.30052C69.7466 1.30052 69.7402 1.30052 69.7336 1.30052L56.2572 1.35631C54.8625 1.362 53.5459 1.95677 52.6139 2.94638C51.8336 2.10614 50.7798 1.55396 49.6112 1.3998C49.3339 1.34925 49.0497 1.32284 48.7605 1.32284C48.7539 1.32284 48.7475 1.32284 48.7407 1.32284L44.8966 1.33878L41.0528 1.32284C41.0462 1.32284 41.0396 1.32284 41.033 1.32284C40.7438 1.32284 40.4591 1.34925 40.1818 1.3998C38.6232 1.60565 37.269 2.5192 36.4951 3.8802C35.6132 2.30334 33.9216 1.30029 32.1008 1.30029H23.799C22.2352 1.30029 20.7883 2.00891 19.8299 3.24467C19.5824 3.56391 19.3768 3.90593 19.2151 4.26365C19.0532 3.90593 18.8478 3.56369 18.6001 3.24467C17.6415 2.00891 16.1949 1.30029 14.631 1.30029H6.32918C4.40281 1.30029 2.62103 2.42288 1.78992 4.16005C0.958799 5.89721 1.20267 7.98869 2.41132 9.48882C2.41223 9.49041 3.13131 10.4989 3.13131 13.5554V27.131C3.13131 30.1875 2.412 31.196 2.40471 31.2058C1.20244 32.6975 0.958571 34.7892 1.78969 36.5264C2.19409 37.3716 2.82346 38.0713 3.58536 38.5671C2.22187 40.536 1.50916 42.9766 1.50916 45.7236C1.50916 49.1479 2.61693 52.0944 4.71271 54.2446C6.73016 56.3147 9.51862 57.4545 12.5644 57.4545C12.7265 57.4545 12.8889 57.45 13.051 57.4432H79.4768C80.3225 58.6361 81.5509 59.4424 82.4501 59.8582C82.4556 59.8607 82.4608 59.8632 82.4663 59.8657C82.4934 59.8783 82.5202 59.8903 82.5467 59.9022C82.5496 59.9078 82.5526 59.9138 82.5558 59.9192L82.6466 60.09C83.0663 60.8647 83.7744 61.7038 84.4129 62.1842C84.7474 62.4372 85.0935 62.5959 85.4112 62.6993C85.5967 62.9482 85.8358 63.2062 86.1464 63.4402C87.343 64.3399 88.9014 64.2525 89.781 64.102C90.1585 64.2766 90.5652 64.364 90.9721 64.364C91.3574 64.364 91.7427 64.2857 92.104 64.1286C92.8552 63.8018 93.4286 63.1661 93.6766 62.3851C94.0511 61.2051 94.9278 60.2751 96.0715 59.8375C96.5996 59.638 97.1504 59.5508 97.7135 59.5761C98.7892 59.6287 99.7986 59.0653 100.323 58.1263C100.65 57.5415 101.277 56.7546 102.415 56.3222C103.821 55.7832 105.399 56.0712 106.531 57.0743C107.369 57.8161 108.564 57.9965 109.583 57.5345C109.647 57.5053 109.714 57.4789 109.782 57.4511L109.891 57.4058C111.627 56.7607 113.569 57.3623 114.622 58.8768C115.121 59.5945 115.923 60.042 116.795 60.0902C117.668 60.1408 118.514 59.7822 119.089 59.1241C120.033 58.0434 120.91 56.8063 121.694 55.4482C123.587 52.1725 124.021 52.0137 125.181 51.5898C125.515 51.4677 125.894 51.329 126.329 51.1453C127.779 50.5375 128.888 49.5101 129.538 48.2106C130.759 47.8773 131.599 47.7031 131.953 47.6769C132.178 47.6591 132.324 47.6618 132.41 47.6682C133.524 48.922 135.152 49.5452 136.888 49.381C136.893 49.3806 136.899 49.3801 136.905 49.3794C138.339 49.2351 139.674 48.352 140.305 47.1295C140.848 46.0777 140.831 44.8447 140.26 43.8275L140.259 43.828Z" fill="#231F20"/>
<path d="M130.936 20.5501C131.567 20.8117 132.111 21.1762 132.572 21.6337C133.031 22.1032 133.394 22.6461 133.655 23.2684C133.922 23.8919 134.048 24.5613 134.048 25.2795C134.048 25.9977 133.922 26.6715 133.655 27.2951C133.394 27.9152 133.031 28.4564 132.572 28.91C132.111 29.3711 131.567 29.7305 130.936 29.9903C130.317 30.2519 129.635 30.3835 128.909 30.3835C128.182 30.3835 127.501 30.2519 126.877 29.9903C126.25 29.7305 125.706 29.3711 125.247 28.91C124.783 28.4564 124.427 27.9152 124.161 27.2951C123.894 26.6717 123.764 26.0018 123.764 25.2795C123.764 24.5572 123.894 23.8919 124.161 23.2684C124.427 22.6461 124.783 22.1032 125.247 21.6337C125.706 21.176 126.25 20.8115 126.877 20.5501C127.501 20.2921 128.181 20.1577 128.909 20.1577C129.636 20.1577 130.317 20.2921 130.936 20.5501ZM127.176 21.2341C126.639 21.46 126.186 21.7744 125.8 22.1681C125.413 22.5623 125.11 23.0264 124.896 23.5587C124.674 24.0877 124.567 24.6649 124.567 25.2797C124.567 25.8945 124.674 26.4645 124.896 26.9969C125.11 27.527 125.413 27.9951 125.8 28.3893C126.186 28.7859 126.639 29.0933 127.176 29.3224C127.704 29.5544 128.281 29.6713 128.909 29.6713C129.536 29.6713 130.098 29.5544 130.631 29.3224C131.159 29.0933 131.616 28.7859 132.002 28.3893C132.396 27.9951 132.696 27.527 132.916 26.9969C133.142 26.4645 133.249 25.8936 133.249 25.2797C133.249 24.6658 133.142 24.0877 132.916 23.5587C132.696 23.0264 132.396 22.5623 132.002 22.1681C131.616 21.7744 131.159 21.46 130.631 21.2341C130.097 21.0036 129.521 20.8884 128.909 20.8884C128.296 20.8884 127.704 21.0039 127.176 21.2341ZM127.042 28.236V22.3218H129.322C129.994 22.3218 130.486 22.4578 130.798 22.7397C131.105 23.0184 131.257 23.4235 131.257 23.9577C131.257 24.2143 131.218 24.4368 131.139 24.6319C131.06 24.8257 130.954 24.9869 130.815 25.1167C130.676 25.2545 130.519 25.359 130.337 25.4337C130.16 25.517 129.964 25.5741 129.765 25.6076L131.537 28.2358H130.676L129.005 25.6076H127.778V28.2358H127.042L127.042 28.236ZM129.397 24.9653C129.618 24.9543 129.806 24.9133 129.977 24.8494C130.137 24.7838 130.272 24.6852 130.373 24.5397C130.478 24.3996 130.529 24.2029 130.529 23.9574C130.529 23.7479 130.486 23.5769 130.404 23.4506C130.329 23.3205 130.221 23.2158 130.09 23.1356C129.956 23.0639 129.806 23.0088 129.643 22.9785C129.476 22.9535 129.3 22.938 129.116 22.938H127.778V24.9924H128.743C128.966 24.9924 129.182 24.9814 129.397 24.965V24.9653Z" fill="white"/>
<path d="M6.23788 45.7239C6.23788 41.139 9.09168 38.7222 12.532 38.7222C13.7054 38.7222 15.2114 39.0421 16.1311 39.735V43.2715C15.1957 42.0098 14.1178 41.2101 12.7383 41.2101C11.0893 41.2101 9.64659 42.934 9.64659 45.7241C9.64659 48.5142 11.0891 50.2379 12.7383 50.2379C14.3876 50.2379 15.1957 49.4382 16.1311 48.1765V51.6952C15.2117 52.3881 13.7371 52.7258 12.5637 52.7258C9.09168 52.7258 6.23788 50.309 6.23788 45.7243V45.7239Z" fill="white"/>
<path d="M27.6725 41.3699V50.0776C27.6725 50.8773 27.9105 52.1747 28.2591 52.3879H23.7405C24.1051 52.1747 24.343 50.8773 24.343 50.0776V46.9143H20.8708V50.0776C20.8708 50.8773 21.1087 52.1747 21.4733 52.3879H16.9547C17.3036 52.1747 17.5413 50.8773 17.5413 50.0776V41.3699C17.5413 40.5702 17.3036 39.2729 16.9547 39.0596H21.4733C21.1087 39.2729 20.8708 40.5702 20.8708 41.3699V44.4264H24.343V41.3699C24.343 40.5702 24.1051 39.2729 23.7405 39.0596H28.2591C27.9105 39.2729 27.6725 40.5702 27.6725 41.3699Z" fill="white"/>
<path d="M32.7136 41.3699V50.0776C32.7136 50.8773 32.9516 52.1747 33.3162 52.3879H28.7976C29.1464 52.1747 29.3842 50.8773 29.3842 50.0776V41.3699C29.3842 40.5702 29.1464 39.2729 28.7976 39.0596H33.3162C32.9516 39.2729 32.7136 40.5702 32.7136 41.3699Z" fill="white"/>
<path d="M34.1563 45.7239C34.1563 41.139 37.0101 38.7222 40.4505 38.7222C41.6238 38.7222 43.1299 39.0421 44.0496 39.735V43.2715C43.1142 42.0098 42.0362 41.2101 40.6568 41.2101C39.0078 41.2101 37.565 42.934 37.565 45.7241C37.565 48.5142 39.0075 50.2379 40.6568 50.2379C42.3061 50.2379 43.1142 49.4382 44.0496 48.1765V51.6952C43.1301 52.3881 41.6555 52.7258 40.4821 52.7258C37.0101 52.7258 34.1563 50.309 34.1563 45.7243V45.7239Z" fill="white"/>
<path d="M54.8618 40.3573L51.6592 44.3911L55.2423 50.7529C55.5912 51.3928 56.3681 52.3879 56.8278 52.3879H53.1336C52.7055 52.3879 51.9286 51.375 51.5799 50.7352L49.5031 47.1456L48.7894 48.0164V50.0776C48.7894 50.8773 49.0274 52.1747 49.3919 52.3879H44.8734C45.2222 52.1747 45.46 50.8773 45.46 50.0776V41.3699C45.46 40.5702 45.2222 39.2729 44.8734 39.0596H49.3919C49.0274 39.2729 48.7894 40.5702 48.7894 41.3699V44.2843L51.2946 41.2278C51.7703 40.6237 52.3409 39.4685 52.1824 39.0598H56.685C56.257 39.0598 55.3216 39.7885 54.8618 40.3573Z" fill="white"/>
<path d="M63.8359 41.548H61.2198V44.4446H63.1065C63.8201 44.4446 64.9776 44.1782 65.1677 43.7695V47.5901C64.9773 47.1992 63.8199 46.9325 63.1065 46.9325H61.2198V49.9004H64.4065C65.1201 49.9004 66.2775 49.6338 66.4674 49.2251V52.3884H57.3035C57.6524 52.1752 57.8901 50.8778 57.8901 50.078V41.3704C57.8901 40.5707 57.6524 39.2734 57.3035 39.0601H65.8968V42.2056C65.7064 41.8146 64.549 41.5482 63.8359 41.5482V41.548Z" fill="white"/>
<path d="M77.723 41.3701V52.3881H74.3619L69.875 44.5334V50.0778C69.875 50.8775 70.1129 52.175 70.4775 52.3881H66.926C67.2748 52.175 67.5126 50.8775 67.5126 50.0778V41.3701C67.5126 40.5882 67.2905 39.3442 66.926 39.0598H70.6203L75.3767 47.4298V41.3876C75.3767 40.5879 75.1388 39.2729 74.7742 39.0596H78.3257C77.9612 39.2729 77.7232 40.5702 77.7232 41.3699L77.723 41.3701Z" fill="white"/>
<path d="M88.2551 42.3827C88.2927 42.3328 88.3285 42.2816 88.3631 42.229C88.3997 42.2786 88.4369 42.3269 88.4744 42.3745C88.4045 42.375 88.3317 42.3777 88.2551 42.3827Z" fill="#231F20"/>
<path d="M100.547 15.5075C100.547 16.2011 100.486 16.8797 100.378 17.54L102.465 21.7442C103.105 23.0341 103.75 24.3339 104.37 25.581C104.378 25.6188 104.392 25.6762 104.4 25.714V27.1314C104.4 27.1699 104.399 27.2061 104.399 27.2442C104.396 27.8328 104.372 28.3774 104.33 28.8814C106.226 29.1184 108.424 29.6109 109.992 30.5227C110.518 30.8271 110.985 31.1293 111.41 31.4169C111.131 30.364 110.93 28.9986 110.921 27.2442C110.921 27.2059 110.92 27.1699 110.92 27.1314V25.714C110.929 25.6762 110.942 25.6188 110.951 25.581C111.57 24.3339 112.215 23.0341 112.856 21.7442L115.738 15.9383C115.872 15.6683 116.001 15.4082 116.128 15.1532C116.41 14.5849 116.673 14.0539 116.91 13.5782C118.971 9.42483 121.041 7.42033 122.126 6.57669C122.346 6.40545 122.223 6.05273 121.944 6.05273H113.728C113.592 6.05273 113.474 6.14587 113.442 6.27816L112.917 8.46801C112.912 8.48941 112.905 8.50968 112.895 8.52949C111.808 10.7196 109.855 14.6548 107.924 18.5447C107.816 18.7624 107.505 18.7624 107.397 18.5447C105.466 14.6548 103.512 10.7196 102.425 8.52949C102.415 8.50968 102.408 8.48964 102.403 8.46801L101.878 6.27816C101.847 6.14587 101.728 6.05273 101.592 6.05273H96.2341C98.8514 8.21617 100.547 11.6488 100.547 15.5075Z" fill="#EE6C24"/>
<path d="M30.5686 22.5929V13.5559C30.5686 9.34817 31.6714 7.34618 32.3354 6.52189C32.4952 6.32356 32.3547 6.03027 32.1002 6.03027H23.7983C23.6064 6.03027 23.4659 6.2113 23.5137 6.39733L23.9826 8.22353C24.0258 8.39249 24.0479 8.56623 24.0479 8.74065V17.1573C24.0479 17.3197 23.9163 17.4513 23.7539 17.4513H14.6747C14.5124 17.4513 14.3808 17.3197 14.3808 17.1573V8.74065C14.3808 8.56623 14.4026 8.39249 14.4461 8.22353L14.915 6.39733C14.9628 6.2113 14.8223 6.03027 14.6303 6.03027H6.3285C6.07393 6.03027 5.93344 6.32356 6.09328 6.52189C6.75749 7.34618 7.86003 9.34817 7.86003 13.5559V18.0946V27.1315C7.86003 31.3393 6.75727 33.3413 6.09328 34.1656C5.93344 34.3639 6.07393 34.6572 6.3285 34.6572H14.6303C14.8223 34.6572 14.9628 34.4762 14.915 34.2901L14.4461 32.4639C14.4029 32.295 14.3808 32.1212 14.3808 31.947V23.5304C14.3808 23.368 14.5124 23.2364 14.6747 23.2364H23.7539C23.9163 23.2364 24.0479 23.368 24.0479 23.5304V31.947C24.0479 32.1215 24.026 32.2952 23.9826 32.4642L23.5137 34.2904C23.4659 34.4764 23.6064 34.6574 23.7983 34.6574H32.1002C32.3547 34.6574 32.4952 34.3641 32.3354 34.1658C31.6712 33.3415 30.5686 31.3395 30.5686 27.1318V22.5931V22.5929Z" fill="#EE6C24"/>
<path d="M69.7527 6.02979L56.2763 6.08557C56.0297 6.08648 55.8926 6.37134 56.0484 6.56284C56.7108 7.37621 57.8293 9.3766 57.8293 13.6142V26.8268C59.2401 31.02 61.0062 32.4181 61.2603 32.6021C62.0711 32.9976 62.5245 33.7894 62.5225 34.6567H65.8818C66.1363 34.6567 66.2768 34.3634 66.117 34.1653C65.453 33.341 64.35 31.339 64.35 27.1313V25.0651C64.35 24.9027 64.4816 24.7711 64.644 24.7711H69.7527C74.4914 24.7711 78.2053 20.5877 78.2053 15.5073C78.2053 10.427 74.3632 6.03001 69.7527 6.03001V6.02979ZM69.1552 18.9651H64.35V11.8356H69.1552C70.7776 11.8356 72.1436 13.5432 72.1436 15.5071C72.1436 17.4711 70.7776 18.9651 69.1552 18.9651Z" fill="#EE6C24"/>
<path d="M89.7294 6.03001L76.296 6.08557C78.8912 8.25083 80.57 11.6678 80.57 15.5071C80.57 18.4837 79.5233 21.2014 77.8059 23.2605V31.9834C77.8059 32.1333 77.787 32.2824 77.7499 32.4275L77.1775 34.6565H86.5579C86.5661 34.6565 86.5707 34.6469 86.5641 34.6421C86.3407 34.4755 84.3267 32.8173 84.3267 27.131V24.7709H89.7294C94.4681 24.7709 98.1819 20.5875 98.1819 15.5071C98.1819 10.4268 94.3399 6.02979 89.7294 6.02979V6.03001ZM89.1319 18.9653H84.3267V11.8358H89.1319C90.7543 11.8358 92.1203 13.5434 92.1203 15.5073C92.1203 17.4713 90.7543 18.9653 89.1319 18.9653Z" fill="#EE6C24"/>
<path d="M59.4166 34.1463C58.4862 33.3106 56.7648 31.307 55.4411 27.1311C55.2904 26.6552 55.1221 26.1244 54.9418 25.5561C54.8609 25.3013 54.7785 25.041 54.6929 24.7709L52.8526 18.9651C52.0629 16.474 51.26 13.9408 50.5929 11.8357L49.0345 6.91905C48.9994 6.80861 49.0338 6.68747 49.1198 6.60982C49.1244 6.6055 49.1292 6.6014 49.1337 6.5973C49.3343 6.41718 49.2084 6.0861 48.9388 6.08496H40.8538C40.5842 6.0861 40.458 6.41718 40.6588 6.5973C40.6634 6.6014 40.668 6.60572 40.6727 6.60982C40.7588 6.68747 40.7932 6.80861 40.7581 6.91905L39.1997 11.8357C38.5326 13.9408 37.7294 16.4738 36.94 18.9651L35.0997 24.7709C35.0141 25.041 34.9317 25.301 34.8508 25.5561C34.6707 26.1244 34.5024 26.6554 34.3515 27.1311C33.9853 28.286 33.5887 29.2693 33.187 30.1131C33.5506 32.0067 34.1859 32.701 34.2654 32.7814C34.8492 33.2389 35.1744 33.9379 35.173 34.6568H38.8384C38.9939 34.6568 39.1223 34.5356 39.1316 34.3806L39.2603 32.2456C39.2617 32.2215 39.266 32.1985 39.2733 32.1752C39.5299 31.3657 39.8621 30.3176 40.241 29.1226C40.2797 29.0006 40.3936 28.9163 40.5215 28.9163H49.2715C49.3997 28.9163 49.5133 29.0006 49.552 29.1226C49.9309 30.3176 50.2631 31.3657 50.5198 32.1752C50.527 32.1982 50.5311 32.2212 50.5327 32.2456L50.6614 34.3806C50.6707 34.5359 50.7994 34.6568 50.9547 34.6568H59.2183C59.4863 34.6568 59.6165 34.3255 59.417 34.1465L59.4166 34.1463ZM47.4945 23.8991H42.2979C42.0991 23.8991 41.9574 23.7062 42.0176 23.5167C42.9341 20.6256 43.8786 17.6458 44.6163 15.3177C44.7031 15.0443 45.0893 15.0443 45.176 15.3177C45.914 17.6458 46.8585 20.6256 47.7748 23.5167C47.8349 23.7062 47.6933 23.8991 47.4945 23.8991Z" fill="#EE6C24"/>
<path d="M136.62 46.5567C135.927 46.6221 135.112 46.4563 134.508 45.7588C133.906 45.052 133.156 44.7374 131.731 44.8482C130.603 44.9318 128.246 45.6179 127.318 45.8984C127.167 46.9807 126.552 47.9751 125.231 48.5287C122.833 49.5424 122.095 49.0813 119.236 54.0293C118.481 55.3384 117.704 56.3959 116.951 57.2578C115.191 54.7261 111.865 53.6176 108.849 54.7664C108.701 54.8286 108.552 54.8867 108.411 54.9502C106.556 53.3068 103.87 52.7253 101.399 53.673C99.822 54.2716 98.6052 55.3833 97.8456 56.7418C96.9257 56.6987 95.98 56.8381 95.0667 57.1837C93.0335 57.9611 91.5826 59.5999 90.971 61.5268C90.3412 61.228 89.9393 61.141 89.6317 61.2326C89.1182 61.3876 88.1962 61.4323 87.8503 61.1722C87.5024 60.9101 87.4575 60.381 87.2342 60.2125C87.0188 60.0515 86.3744 60.1136 86.1216 59.9201C85.8704 59.7329 85.4084 59.2338 85.1402 58.739C84.8722 58.2414 84.6265 57.6528 83.853 57.3732C83.0813 57.0854 81.8342 56.2483 81.4587 55.1742C81.0823 54.1049 80.7899 53.1909 80.2523 52.7888C79.7216 52.3864 78.9512 51.8616 78.9246 51.3966C78.8936 50.9221 79.3105 49.9254 79.4724 49.7196C79.6305 49.5146 79.9099 48.832 79.7716 48.339C79.635 47.8526 79.4346 47.1629 80.5811 46.5096C81.7253 45.8558 82.265 45.2048 82.2951 44.6285C82.3244 44.0492 82.8682 42.872 83.8557 42.0855C84.844 41.2981 85.6125 39.7042 85.9037 39.1857C86.1961 38.6658 87.5536 36.6818 88.4405 36.1661C89.3256 35.6503 90.016 35.3267 90.3045 34.9469C90.5857 34.5746 91.1507 33.7638 92.2234 33.5857C93.2984 33.4079 94.3173 33.2382 95.2345 32.7487C96.1499 32.2527 100.268 31.6516 101.04 31.5496C101.818 31.4382 106.3 31.6593 108.566 32.9759C110.839 34.2925 111.988 35.6444 114.306 36.1089C116.627 36.5739 118.192 37.3196 118.886 38.0364C119.577 38.7512 120.347 40.0243 122.613 40.8857C124.873 41.7505 126.079 41.4711 126.89 43.2684C126.914 43.3215 126.937 43.375 126.959 43.429C128.116 42.9314 131.39 42.4735 132.142 42.3485C132.995 42.1998 133.773 40.9058 134.395 40.2866C135.009 39.6693 136.35 39.5939 137.002 40.1762C137.645 40.7673 137.203 41.6153 136.856 42.1436C136.508 42.6641 137.447 44.6114 137.782 45.2139C138.125 45.8167 137.322 46.4859 136.619 46.5567H136.62Z" fill="white"/>
<path d="M117.208 56.1659C120.019 52.6959 121.527 48.7848 123.271 48.2791C125.012 47.7845 127.773 46.8987 126.333 44.0026C125.756 42.484 122.49 41.6697 122.184 41.6023C121.871 41.5319 119.589 40.4469 119.015 39.9184C118.433 39.3897 116.122 37.6528 115.249 37.7233C114.386 37.7891 112.452 37.9661 111.559 36.7499C110.666 35.533 108.54 33.9332 107.366 34.0436C106.193 34.1552 102.936 32.4954 102.006 32.8871C101.079 33.2667 98.8621 34.1356 98.1976 33.715C97.5287 33.3129 94.1914 33.5905 93.42 34.538C92.9111 35.163 93.6889 36.4591 92.649 36.3997C91.6041 36.3368 89.3498 36.3407 88.1762 37.8989C86.9965 39.4521 85.0881 41.702 86.6898 42.8235C86.6898 42.8235 84.3556 42.9597 84.2253 43.5895C84.0971 44.2118 84.0174 46.2172 82.8666 46.4372C81.7195 46.6603 80.8159 47.1522 81.0509 47.7802C81.2834 48.4084 80.7032 49.8707 80.7032 49.8707C80.7032 49.8707 79.7694 50.9287 80.7811 51.2561C81.7978 51.5785 82.8612 51.7534 82.5162 52.8746C82.1662 53.9934 81.5368 54.9593 82.6754 55.6971C83.823 56.431 85.1366 57.3598 85.3643 57.7179C85.592 58.0857 85.8106 59.0013 88.6016 57.9015C88.6016 57.9015 87.1752 59.5211 88.7236 60.327C90.2711 61.1317 90.6261 59.9495 91.2056 59.6646C91.4258 59.5507 91.6521 59.5801 91.8762 59.6769C91.8454 59.7208 91.819 59.768 91.7894 59.8126C92.5531 58.6545 93.6732 57.7163 95.0672 57.1833C95.9805 56.8376 96.9262 56.6983 97.8461 56.7413C98.6055 55.3826 99.8225 54.2712 101.399 53.6725C103.871 52.7248 106.556 53.3064 108.412 54.9497C108.552 54.8862 108.701 54.8281 108.85 54.766C111.682 53.6869 114.788 54.5993 116.614 56.8117C116.813 56.6145 117.016 56.4016 117.208 56.1654L117.208 56.1659Z" fill="#F1B431"/>
<path fill-rule="evenodd" clip-rule="evenodd" d="M97.3879 37.324C97.3189 37.4226 97.185 37.4394 97.0915 37.367C96.997 37.2944 96.9819 37.1555 97.0516 37.0587C97.1179 36.9587 97.2552 36.9391 97.3469 37.0125C97.4442 37.084 97.4622 37.2213 97.3879 37.3237V37.324ZM104.691 40.2313C104.508 40.4731 104.189 40.5253 103.953 40.3488C103.716 40.1646 103.663 39.8164 103.846 39.5707C104.023 39.3398 104.355 39.2756 104.583 39.4628C104.823 39.6461 104.866 39.989 104.691 40.2313ZM115.779 42.744C115.665 42.9121 115.448 42.9346 115.297 42.8201C115.14 42.6999 115.115 42.4772 115.234 42.316C115.349 42.1554 115.563 42.1288 115.713 42.2476C115.861 42.3629 115.894 42.5897 115.779 42.744ZM112.677 51.4706C112.559 51.6321 112.341 51.6685 112.192 51.549C112.045 51.4328 112.013 51.2031 112.127 51.0435C112.245 50.8879 112.461 50.8531 112.611 50.9747C112.763 51.0847 112.794 51.3131 112.677 51.4709V51.4706ZM109.075 46.7701C108.96 46.9325 108.74 46.9598 108.59 46.8459C108.443 46.7268 108.412 46.4994 108.532 46.3388C108.646 46.1833 108.858 46.1526 109.013 46.2694C109.161 46.3887 109.192 46.6114 109.075 46.7701ZM112.82 41.6763C112.709 41.8369 112.494 41.8687 112.337 41.7481C112.192 41.6285 112.158 41.4049 112.278 41.2512C112.386 41.0886 112.609 41.0572 112.757 41.1758C112.909 41.2904 112.937 41.5176 112.82 41.6763ZM91.7154 43.3297C91.5489 43.5554 91.2356 43.6093 91.0188 43.4415C90.8032 43.2653 90.7636 42.9369 90.9289 42.7169C91.0979 42.4851 91.4027 42.4378 91.6232 42.6065C91.8331 42.7757 91.8786 43.0979 91.7154 43.3297ZM98.2033 45.9087C98.0749 46.0836 97.8422 46.1225 97.6803 45.9907C97.5148 45.8593 97.4808 45.6193 97.6095 45.4483C97.7288 45.2739 97.9679 45.2379 98.1271 45.3713C98.2935 45.4947 98.3265 45.7452 98.2031 45.9087H98.2033ZM101.49 48.0908C101.378 48.2502 101.16 48.2821 101.013 48.1612C100.856 48.0398 100.827 47.8201 100.944 47.6582C101.057 47.5004 101.27 47.4662 101.425 47.5839C101.577 47.7048 101.603 47.9273 101.49 48.0906V48.0908ZM88.0004 48.6653C87.7176 49.0478 87.2098 49.1348 86.8494 48.8491C86.4832 48.5621 86.4149 48.0227 86.6868 47.6411C86.9616 47.243 87.4762 47.1775 87.8433 47.4682C88.1937 47.7597 88.2777 48.2916 88.0002 48.6651L88.0004 48.6653Z" fill="black"/>
<path fill-rule="evenodd" clip-rule="evenodd" d="M109.714 38.1382C109.597 38.2935 109.381 38.3295 109.232 38.2093C109.079 38.0922 109.05 37.8648 109.163 37.707C109.277 37.5451 109.494 37.5121 109.646 37.6352C109.799 37.7516 109.828 37.9779 109.714 38.1382ZM117.14 50.4312C116.994 50.6281 116.727 50.6639 116.539 50.5234C116.354 50.3715 116.313 50.0919 116.454 49.8997C116.607 49.7011 116.861 49.662 117.054 49.8097C117.237 49.9548 117.278 50.2362 117.139 50.4312H117.14ZM113.54 46.4233C113.404 46.6125 113.14 46.6538 112.96 46.5092C112.779 46.3687 112.746 46.0959 112.884 45.9087C113.022 45.7188 113.282 45.6748 113.465 45.8217C113.645 45.9629 113.679 46.2339 113.54 46.4233ZM104.181 44.4582C104.063 44.6197 103.852 44.654 103.697 44.5302C103.544 44.4111 103.517 44.185 103.63 44.0297C103.749 43.8703 103.962 43.8363 104.113 43.9552C104.266 44.0688 104.289 44.2988 104.181 44.4582ZM101.022 37.3563C100.909 37.5218 100.694 37.5492 100.54 37.4335C100.385 37.3108 100.362 37.0817 100.478 36.933C100.594 36.7643 100.804 36.7349 100.96 36.854C101.107 36.9724 101.138 37.1949 101.022 37.3563ZM93.2114 39.0846C93.0969 39.2412 92.8828 39.2765 92.7364 39.152C92.5864 39.0345 92.5554 38.8138 92.6681 38.6547C92.7842 38.4914 92.9976 38.4554 93.1461 38.5761C93.2982 38.6954 93.3341 38.9229 93.2114 39.0846ZM98.2099 41.5786C98.0945 41.7339 97.8741 41.7674 97.7208 41.6479C97.5733 41.5258 97.5476 41.3081 97.656 41.149C97.7764 40.9841 97.9879 40.9536 98.1403 41.0731C98.299 41.192 98.3192 41.4156 98.2099 41.5786ZM106.257 50.2246C106.034 50.5411 105.602 50.6176 105.297 50.3715C104.994 50.1388 104.928 49.6836 105.172 49.3823C105.392 49.051 105.822 48.9925 106.123 49.2314C106.422 49.4529 106.491 49.9131 106.257 50.2249V50.2246ZM119.091 44.4455C118.869 44.762 118.436 44.8385 118.131 44.5923C117.828 44.3596 117.763 43.9044 118.006 43.6032C118.227 43.2719 118.656 43.2133 118.958 43.4522C119.257 43.6738 119.325 44.134 119.091 44.4457V44.4455ZM96.1171 53.5086C96.0761 53.4986 96.0347 53.4747 96.0015 53.448C95.8464 53.3253 95.8195 53.101 95.9366 52.943C96.0529 52.7806 96.2676 52.7508 96.4181 52.8672C96.5029 52.9414 96.5479 53.0454 96.552 53.1532C96.4031 53.264 96.2551 53.3856 96.1171 53.5086ZM92.6756 48.8149C92.5301 49.016 92.263 49.0549 92.0704 48.9051C91.8762 48.7584 91.8441 48.4692 91.9943 48.2732C92.1335 48.0719 92.406 48.0284 92.5968 48.1892C92.7861 48.3326 92.8207 48.615 92.6756 48.8147V48.8149ZM88.0542 54.0631C87.755 54.4549 87.2415 54.5303 86.8863 54.2416C86.5201 53.9597 86.4498 53.4278 86.7378 53.0309C87.0165 52.6495 87.525 52.5832 87.8882 52.8553C88.2436 53.1402 88.3267 53.6839 88.0542 54.0631Z" fill="black"/>
</svg>
